<?xml version="1.0" encoding="utf-8"?>
<svg xmlns="http://www.w3.org/2000/svg"
	xmlns:xlink="http://www.w3.org/1999/xlink"
	width="458px" height="78px" viewBox="0 0 458 78">
<g transform="translate(0.39 -0.21)"><path fillRule="evenodd" d="M 436.94 75.86C 436.94 75.86 433.22 62.5 433.22 62.5 433.22 62.5 404.65 62.5 404.65 62.5 404.65 62.5 400.81 75.86 400.81 75.86 400.81 75.86 380.84 75.86 380.84 75.86 380.84 75.86 406.27 1.88 406.27 1.88 406.27 1.88 431.48 1.88 431.48 1.88 431.48 1.88 457.14 75.86 457.14 75.86 457.14 75.86 436.94 75.86 436.94 75.86ZM 421.49 23.71C 421.1 22.55 420.73 21.33 420.38 20.05 420.04 18.78 419.75 17.52 419.51 16.28 419.36 15.81 419.24 15.37 419.17 14.94 419.09 14.52 419.01 14.11 418.93 13.72 418.85 14.11 418.76 14.52 418.64 14.94 418.53 15.37 418.43 15.81 418.35 16.28 418.27 16.43 418.24 16.57 418.24 16.68 418.24 16.8 418.2 16.94 418.12 17.09 417.89 18.25 417.64 19.38 417.36 20.46 417.09 21.54 416.8 22.63 416.49 23.71 416.49 23.71 408.94 48.22 408.94 48.22 408.94 48.22 429.04 48.22 429.04 48.22 429.04 48.22 421.49 23.71 421.49 23.71ZM 323.7 37.65C 322.92 36.72 322.19 35.62 321.49 34.34 320.79 33.06 320.13 31.73 319.51 30.33 319.05 29.33 318.6 28.34 318.18 27.37 317.75 26.4 317.35 25.49 316.96 24.64 317.35 27.04 317.66 29.48 317.89 31.96 318.12 34.44 318.24 36.91 318.24 39.39 318.24 39.39 318.24 75.86 318.24 75.86 318.24 75.86 298.72 75.86 298.72 75.86 298.72 75.86 298.72 1.88 298.72 1.88 298.72 1.88 318.24 1.88 318.24 1.88 318.24 1.88 346.11 39.86 346.11 39.86 346.81 40.94 347.48 42.08 348.14 43.28 348.8 44.48 349.44 45.7 350.06 46.94 350.52 47.95 350.99 48.95 351.45 49.96 351.92 50.97 352.38 51.93 352.85 52.86 352.77 52.01 352.67 51.2 352.56 50.42 352.44 49.65 352.34 48.84 352.27 47.99 352.11 46.44 351.99 44.85 351.92 43.22 351.84 41.6 351.8 39.93 351.8 38.23 351.8 38.23 351.8 1.88 351.8 1.88 351.8 1.88 371.2 1.88 371.2 1.88 371.2 1.88 371.2 75.86 371.2 75.86 371.2 75.86 351.8 75.86 351.8 75.86 351.8 75.86 323.7 37.65 323.7 37.65ZM 284.21 44.27C 284.05 45.89 283.76 47.5 283.34 49.09 282.91 50.68 282.39 52.24 281.77 53.79 278.52 61.3 273.44 67.13 266.55 71.27 259.66 75.42 252.42 77.49 244.84 77.49 244.29 77.49 243.77 77.47 243.27 77.43 242.76 77.39 242.24 77.37 241.7 77.37 239.07 77.14 236.45 76.67 233.86 75.98 231.26 75.28 228.77 74.31 226.37 73.07 219.86 69.67 214.75 64.81 211.04 58.5 207.32 52.19 205.46 45.62 205.46 38.81 205.46 37.8 205.5 36.8 205.58 35.79 205.65 34.79 205.81 33.74 206.04 32.65 206.43 30.64 206.97 28.61 207.67 26.56 208.37 24.51 209.22 22.55 210.22 20.69 213.78 14.11 218.74 9.08 225.09 5.59 231.44 2.11 238.06 0.37 244.95 0.37 245.88 0.37 246.83 0.41 247.8 0.48 248.76 0.56 249.71 0.64 250.64 0.72 253.51 1.1 256.35 1.8 259.18 2.81 262 3.81 264.7 5.13 267.25 6.75 272.75 10.32 277.01 15.06 280.03 20.98 283.05 26.91 284.56 33.08 284.56 39.51 284.56 40.28 284.54 41.07 284.5 41.89 284.46 42.7 284.36 43.5 284.21 44.27ZM 264.29 37.76C 264.25 37.3 264.23 36.84 264.23 36.37 263.84 33.04 262.84 29.83 261.21 26.73 259.59 23.64 257.34 21.23 254.47 19.53 253.7 19.14 252.93 18.8 252.15 18.49 251.38 18.18 250.6 17.9 249.83 17.67 249.05 17.52 248.28 17.38 247.51 17.27 246.73 17.15 245.96 17.09 245.18 17.09 241.23 17.09 237.59 18.33 234.27 20.81 230.94 23.29 228.61 26.58 227.3 30.68 227.22 30.84 227.16 30.99 227.12 31.14 227.08 31.3 227.07 31.45 227.07 31.61 226.83 32.31 226.64 33.02 226.48 33.76 226.33 34.49 226.17 35.25 226.02 36.02 225.94 36.57 225.88 37.09 225.85 37.59 225.81 38.1 225.79 38.62 225.79 39.16 225.79 39.47 225.79 39.76 225.79 40.03 225.79 40.3 225.83 40.59 225.9 40.9 226.14 45.01 227.39 48.9 229.68 52.57 231.96 56.25 235.12 58.67 239.14 59.83 239.61 59.99 240.07 60.12 240.54 60.24 241 60.35 241.5 60.45 242.05 60.53 242.51 60.61 242.98 60.67 243.44 60.7 243.91 60.74 244.37 60.76 244.84 60.76 248.94 60.76 252.63 59.54 255.93 57.1 259.22 54.66 261.6 51.39 263.07 47.29 263.3 46.52 263.51 45.7 263.71 44.85 263.9 44 264.04 43.15 264.11 42.29 264.19 41.75 264.25 41.21 264.29 40.67 264.33 40.13 264.35 39.62 264.35 39.16 264.35 38.69 264.33 38.23 264.29 37.76ZM 180.96 68.89C 177.32 71.37 173.37 73.07 169.11 74 164.85 74.93 160.55 75.51 156.22 75.74 154.98 75.82 153.76 75.86 152.56 75.86 151.36 75.86 150.18 75.86 149.02 75.86 149.02 75.86 128.69 75.86 128.69 75.86 128.69 75.86 128.69 1.88 128.69 1.88 128.69 1.88 150.29 1.88 150.29 1.88 151.46 1.88 152.64 1.88 153.84 1.88 155.04 1.88 156.22 1.92 157.38 1.99 161.56 2.22 165.68 2.81 169.75 3.73 173.81 4.66 177.55 6.37 180.96 8.85 185.29 11.86 188.66 15.85 191.06 20.81 193.46 25.76 194.82 30.87 195.13 36.14 195.2 36.6 195.24 37.07 195.24 37.53 195.24 38 195.24 38.46 195.24 38.93 195.24 39.16 195.24 39.41 195.24 39.68 195.24 39.95 195.24 40.2 195.24 40.44 195.01 45.93 193.69 51.24 191.29 56.35 188.89 61.46 185.45 65.64 180.96 68.89ZM 174.92 38C 174.92 37.69 174.88 37.38 174.8 37.07 174.64 34.13 173.95 31.28 172.71 28.53 171.47 25.78 169.77 23.6 167.6 21.97 165.97 20.65 164.17 19.76 162.2 19.3 160.23 18.83 158.19 18.56 156.1 18.49 155.71 18.49 155.31 18.49 154.88 18.49 154.46 18.49 154.05 18.49 153.66 18.49 153.66 18.49 148.55 18.49 148.55 18.49 148.55 18.49 148.55 59.25 148.55 59.25 148.78 59.25 149.04 59.27 149.31 59.31 149.58 59.35 149.83 59.37 150.06 59.37 150.37 59.37 150.64 59.39 150.88 59.43 151.11 59.47 151.34 59.48 151.57 59.48 152.35 59.48 153.16 59.47 154.01 59.43 154.86 59.39 155.68 59.33 156.45 59.25 158.46 59.1 160.44 58.75 162.37 58.21 164.31 57.67 166.05 56.85 167.6 55.77 170.08 53.99 171.92 51.57 173.12 48.51 174.32 45.45 174.92 42.26 174.92 38.93 174.92 38.62 174.92 38.31 174.92 38ZM 69.34 1.88C 69.34 1.88 114.76 1.88 114.76 1.88 114.76 1.88 114.76 18.02 114.76 18.02 114.76 18.02 89.2 18.02 89.2 18.02 89.2 18.02 89.2 30.91 89.2 30.91 89.2 30.91 113.25 30.91 113.25 30.91 113.25 30.91 113.25 46.71 113.25 46.71 113.25 46.71 89.2 46.71 89.2 46.71 89.2 46.71 89.2 59.25 89.2 59.25 89.2 59.25 114.76 59.25 114.76 59.25 114.76 59.25 114.76 75.86 114.76 75.86 114.76 75.86 69.34 75.86 69.34 75.86 69.34 75.86 69.34 1.88 69.34 1.88ZM 54.71 54.26C 54.25 58.28 52.95 62.12 50.82 65.76 48.69 69.4 45.84 72.18 42.28 74.12 40.97 74.74 39.61 75.26 38.22 75.69 36.82 76.11 35.43 76.48 34.04 76.79 32.88 77.02 31.71 77.2 30.55 77.31 29.39 77.43 28.27 77.49 27.18 77.49 26.95 77.49 26.74 77.49 26.55 77.49 26.35 77.49 26.14 77.49 25.91 77.49 21.26 77.33 16.69 76.3 12.2 74.41 7.71 72.51 3.72 69.98 0.24 66.8 0.24 66.8 9.53 51.93 9.53 51.93 9.61 52.01 9.66 52.07 9.7 52.11 9.74 52.15 9.8 52.21 9.88 52.28 11.97 54.61 14.33 56.75 16.96 58.73 19.59 60.7 22.61 61.77 26.02 61.92 26.1 61.92 26.2 61.94 26.31 61.98 26.43 62.02 26.53 62.04 26.6 62.04 26.68 62.04 26.78 62.06 26.89 62.1 27.01 62.14 27.11 62.15 27.18 62.15 27.49 62.15 27.82 62.14 28.17 62.1 28.52 62.06 28.85 62 29.16 61.92 30.4 61.69 31.58 61.23 32.7 60.53 33.82 59.83 34.69 58.98 35.31 57.97 35.39 57.82 35.47 57.67 35.55 57.51 35.62 57.35 35.7 57.2 35.78 57.04 35.93 56.5 36.05 56 36.13 55.53 36.2 55.07 36.24 54.65 36.24 54.26 36.24 52.17 35.33 50.41 33.51 48.97 31.69 47.54 29.74 46.44 27.65 45.66 26.8 45.35 25.98 45.1 25.21 44.91 24.43 44.72 23.7 44.54 23 44.39 22.92 44.39 22.85 44.37 22.77 44.33 22.69 44.29 22.61 44.27 22.54 44.27 18.74 43.34 15.18 41.85 11.85 39.8 8.52 37.75 6.24 34.79 5 30.91 4.77 30.14 4.55 29.33 4.36 28.47 4.17 27.62 4.03 26.73 3.96 25.8 3.88 25.49 3.84 25.2 3.84 24.93 3.84 24.66 3.84 24.37 3.84 24.06 3.84 23.44 3.86 22.82 3.9 22.2 3.94 21.58 4.03 20.96 4.19 20.34 4.42 18.8 4.81 17.25 5.35 15.7 5.89 14.15 6.59 12.76 7.44 11.52 9.92 7.41 13.11 4.47 17.02 2.69 20.93 0.91 25.02 0.02 29.27 0.02 30.28 0.02 31.31 0.08 32.35 0.19 33.4 0.31 34.46 0.44 35.55 0.6 38.33 1.06 41.1 1.84 43.85 2.92 46.6 4.01 49.14 5.28 51.46 6.75 51.46 6.75 45.07 21.04 45.07 21.04 42.98 19.49 40.77 18.14 38.45 16.98 36.13 15.81 33.61 15.23 30.9 15.23 30.74 15.23 30.59 15.23 30.44 15.23 30.28 15.23 30.13 15.23 29.97 15.23 28.19 15.47 26.53 16.26 24.98 17.61 23.43 18.97 22.65 20.42 22.65 21.97 22.65 22.2 22.67 22.43 22.71 22.67 22.75 22.9 22.85 23.13 23 23.36 23.16 23.91 23.43 24.41 23.82 24.87 24.2 25.34 24.63 25.76 25.09 26.15 25.94 26.85 27.18 27.49 28.81 28.07 30.44 28.65 32.14 29.21 33.92 29.75 35.39 30.14 36.82 30.51 38.22 30.85 39.61 31.2 40.77 31.53 41.7 31.84 46.04 33.39 49.29 35.96 51.46 39.57 53.62 43.17 54.75 46.98 54.83 51.01 54.83 51.16 54.83 51.28 54.83 51.35 54.83 51.43 54.83 51.51 54.83 51.59 54.83 52.05 54.81 52.52 54.77 52.98 54.73 53.44 54.71 53.87 54.71 54.26Z" fill="rgb(255,255,255)"/></g></svg>